<?xml version="1.0" encoding="utf-8"?>
<!-- Generator: Adobe Illustrator 23.0.4, SVG Export Plug-In . SVG Version: 6.00 Build 0)  -->
<svg version="1.1" id="Layer_1" xmlns="http://www.w3.org/2000/svg" xmlns:xlink="http://www.w3.org/1999/xlink" x="0px" y="0px"
	 viewBox="0 0 257.5 98.3" style="enable-background:new 0 0 257.5 98.3;" xml:space="preserve">
<style type="text/css">
	.st0{fill:#04A6B4;}
	.st1{fill:#132E52;}
	.st2{fill:#6986B9;}
	.st3{fill:none;stroke:#132E52;stroke-width:1.463;stroke-miterlimit:10;}
</style>
<g>
	<path class="st0" d="M14.1,81.1H4.8l-0.3,3.5l1.3,0.1l0.3-2.2h2.5v8.3H6.9v1.3h5.3v-1.3h-1.9v-8.3h2.5l0.3,2.2l1.4-0.1L14.1,81.1z
		 M24.3,91h-1.2v-3.8c0-1-0.3-1.7-0.8-2.1c-0.5-0.5-1.1-0.7-1.9-0.7c-1.2,0-2,0.5-2.6,1.5v-5.4h-2.7v1.2h1.2V91h-1.2v1.2h3.9V91
		h-1.2v-3.4c0-0.5,0.2-1,0.6-1.4c0.4-0.4,0.9-0.6,1.5-0.6c0.5,0,0.9,0.2,1.2,0.5c0.3,0.3,0.5,0.9,0.5,1.6V91h-1.2v1.2h4V91z
		 M30.7,89.7c-0.1,0.4-0.3,0.7-0.6,1c-0.3,0.3-0.7,0.4-1.3,0.4c-1.4,0-2.2-0.8-2.2-2.4h5.2c0.1-0.3,0.1-0.7,0.1-1
		c0-0.9-0.3-1.7-0.9-2.3c-0.6-0.6-1.4-1-2.4-1c-1.1,0-2,0.4-2.6,1.2c-0.6,0.8-0.9,1.7-0.9,2.9c0,1.2,0.3,2.2,1,2.9
		c0.7,0.7,1.6,1,2.7,1c1,0,1.7-0.2,2.3-0.7c0.6-0.5,0.9-1,1-1.7L30.7,89.7z M26.5,87.7c0.1-0.6,0.3-1.1,0.6-1.5
		c0.3-0.4,0.8-0.6,1.4-0.6c0.7,0,1.1,0.2,1.4,0.7c0.3,0.5,0.4,0.9,0.4,1.4H26.5z M43.9,87c-0.4-0.4-0.9-0.7-1.5-0.9
		c-0.6-0.2-1.1-0.3-1.6-0.4c-0.6-0.1-1.1-0.3-1.6-0.5c-0.5-0.2-0.7-0.6-0.7-1.3c0-0.5,0.2-0.9,0.6-1.2c0.4-0.3,0.9-0.4,1.5-0.4
		c0.3,0,0.6,0,1,0.1c0.3,0.1,0.7,0.2,1,0.4l0.2,1.5l1.2-0.1L44,82c-0.4-0.3-0.8-0.5-1.5-0.7c-0.6-0.2-1.3-0.3-1.9-0.3
		c-1,0-1.8,0.2-2.5,0.7c-0.7,0.5-1.1,1.3-1.1,2.4c0,0.7,0.2,1.3,0.5,1.7c0.3,0.4,0.8,0.7,1.3,0.8c0.5,0.2,1,0.3,1.6,0.4
		c0.7,0.1,1.3,0.3,1.8,0.6c0.5,0.2,0.8,0.7,0.8,1.5c0,0.7-0.2,1.2-0.7,1.4c-0.5,0.3-1.1,0.4-1.8,0.4c-0.3,0-0.7,0-1-0.1
		c-0.3-0.1-0.7-0.2-1.1-0.4l0-1.4L37.1,89l-0.3,2.3c0.4,0.3,0.9,0.5,1.6,0.7c0.7,0.2,1.4,0.3,2.1,0.3c1.2,0,2.2-0.3,2.9-0.9
		c0.8-0.6,1.1-1.4,1.1-2.5C44.6,88.1,44.4,87.5,43.9,87 M51.4,89.3c-0.2,1.2-0.8,1.8-1.9,1.8c-0.7,0-1.2-0.2-1.6-0.7
		c-0.4-0.5-0.5-1.1-0.5-2c0-0.8,0.2-1.5,0.5-2c0.3-0.5,0.9-0.8,1.6-0.8c0.6,0,1,0.1,1.5,0.4l0.3,1.3l1.2-0.1l-0.3-2
		c-0.4-0.3-0.8-0.5-1.3-0.6c-0.4-0.1-0.9-0.2-1.4-0.2c-1.2,0-2.1,0.4-2.7,1.2c-0.6,0.8-1,1.7-1,2.9c0,1.2,0.3,2.2,1,2.8
		c0.6,0.7,1.5,1,2.6,1c1.1,0,1.9-0.3,2.4-0.9c0.5-0.6,0.8-1.2,0.9-1.9L51.4,89.3z M56.2,81h-1.5v1.7h1.5V81z M57.5,91h-1.2v-6.4
		h-2.8v1.2h1.3V91h-1.2v1.2h4V91z M63.8,89.7c-0.1,0.4-0.3,0.7-0.6,1c-0.3,0.3-0.7,0.4-1.3,0.4c-1.4,0-2.2-0.8-2.2-2.4h5.2
		c0.1-0.3,0.1-0.7,0.1-1c0-0.9-0.3-1.7-0.9-2.3c-0.6-0.6-1.4-1-2.4-1c-1.1,0-2,0.4-2.6,1.2c-0.6,0.8-0.9,1.7-0.9,2.9
		c0,1.2,0.3,2.2,1,2.9c0.7,0.7,1.6,1,2.7,1c1,0,1.7-0.2,2.3-0.7c0.6-0.5,0.9-1,1-1.7L63.8,89.7z M59.7,87.7c0.1-0.6,0.3-1.1,0.6-1.5
		c0.3-0.4,0.8-0.6,1.4-0.6c0.7,0,1.1,0.2,1.4,0.7c0.3,0.5,0.4,0.9,0.4,1.4H59.7z M75.1,91h-1.2v-3.8c0-1-0.3-1.7-0.8-2.1
		c-0.5-0.5-1.1-0.7-1.9-0.7c-1.2,0-2,0.5-2.6,1.4v-1.3h-2.8v1.2h1.3V91H66v1.2h3.9V91h-1.2v-3.3c0-0.6,0.2-1,0.6-1.5
		c0.4-0.4,0.9-0.6,1.5-0.6c0.5,0,0.9,0.2,1.2,0.5c0.3,0.3,0.4,0.9,0.4,1.6V91h-1.2v1.2h3.9V91z M81.3,89.3c-0.2,1.2-0.8,1.8-1.9,1.8
		c-0.7,0-1.2-0.2-1.6-0.7c-0.4-0.5-0.5-1.1-0.5-2c0-0.8,0.2-1.5,0.5-2c0.3-0.5,0.9-0.8,1.6-0.8c0.6,0,1,0.1,1.5,0.4l0.3,1.3l1.2-0.1
		l-0.3-2c-0.4-0.3-0.8-0.5-1.3-0.6c-0.4-0.1-0.9-0.2-1.4-0.2c-1.2,0-2.1,0.4-2.7,1.2c-0.6,0.8-1,1.7-1,2.9c0,1.2,0.3,2.2,1,2.8
		c0.7,0.7,1.5,1,2.6,1c1.1,0,1.9-0.3,2.4-0.9c0.5-0.6,0.8-1.2,0.9-1.9L81.3,89.3z M89.3,89.7c-0.1,0.4-0.3,0.7-0.6,1
		c-0.3,0.3-0.7,0.4-1.3,0.4c-1.4,0-2.2-0.8-2.2-2.4h5.2c0.1-0.3,0.1-0.7,0.1-1c0-0.9-0.3-1.7-0.9-2.3c-0.6-0.6-1.4-1-2.4-1
		c-1.1,0-2,0.4-2.6,1.2c-0.6,0.8-0.9,1.7-0.9,2.9c0,1.2,0.3,2.2,1,2.9s1.6,1,2.7,1c1,0,1.7-0.2,2.3-0.7c0.6-0.5,0.9-1,1-1.7
		L89.3,89.7z M85.1,87.7c0.1-0.6,0.3-1.1,0.6-1.5c0.3-0.4,0.8-0.6,1.4-0.6c0.7,0,1.1,0.2,1.4,0.7c0.3,0.5,0.4,0.9,0.4,1.4H85.1z
		 M102,85.6c-0.6-0.8-1.6-1.2-2.9-1.2c-1.3,0-2.2,0.4-2.9,1.2c-0.6,0.8-1,1.7-1,2.8c0,1.2,0.3,2.1,1,2.8c0.7,0.7,1.6,1.1,2.7,1.1
		c1.2,0,2.1-0.4,2.8-1.1c0.7-0.7,1.1-1.7,1.1-2.9C102.9,87.3,102.6,86.4,102,85.6 M100.8,90.3c-0.4,0.5-1,0.8-1.7,0.8
		c-0.7,0-1.3-0.3-1.7-0.8c-0.4-0.5-0.6-1.2-0.6-2c0-0.8,0.2-1.5,0.6-2c0.4-0.5,1-0.8,1.7-0.8c0.7,0,1.3,0.2,1.7,0.7
		c0.4,0.5,0.6,1.1,0.6,2C101.4,89.1,101.2,89.8,100.8,90.3 M105.6,81.1c-0.5,0.5-0.8,1.2-0.8,2.1v1.3h-1.1v1.1h1.1V91h-1.2v1.2h4.3
		V91h-1.6v-5.3h2v-1.1h-2v-1.5c0-1,0.4-1.6,1.2-1.6c0.3,0,0.6,0,0.8,0.1l0.3,1.3l1.2-0.2l-0.3-1.8c-0.3-0.2-0.6-0.4-0.9-0.5
		c-0.3-0.1-0.7-0.1-1-0.1C106.8,80.3,106.2,80.6,105.6,81.1 M113.4,87l1.2,0.1l0.3-1.2c0.4-0.2,0.8-0.3,1.4-0.3
		c0.7,0,1.1,0.2,1.3,0.5c0.2,0.4,0.3,0.8,0.3,1.3v0.6c-0.4,0-0.8-0.1-1.3-0.1c-0.9,0-1.7,0.2-2.4,0.5c-0.8,0.3-1.1,0.9-1.1,1.9
		c0,0.8,0.3,1.3,0.8,1.7c0.5,0.3,1,0.5,1.6,0.5c0.6,0,1.1-0.2,1.6-0.5c0.4-0.3,0.7-0.7,1-1.1v0c0.1,1,0.5,1.5,1.5,1.5
		c0.4,0,0.8-0.1,1.1-0.3l0-0.9c-0.1,0.1-0.3,0.1-0.5,0.1c-0.4,0-0.6-0.2-0.6-0.7V87c0-0.9-0.3-1.5-0.8-1.9c-0.5-0.4-1.2-0.6-2-0.6
		c-0.5,0-1,0.1-1.5,0.2c-0.4,0.1-0.9,0.3-1.4,0.6L113.4,87z M117.1,90.7c-0.4,0.3-0.9,0.5-1.4,0.5c-0.3,0-0.6-0.1-0.9-0.3
		c-0.3-0.2-0.4-0.5-0.4-0.9c0-0.5,0.2-0.9,0.6-1.1c0.4-0.2,0.9-0.3,1.4-0.3c0.2,0,0.5,0,0.7,0c0.2,0,0.4,0,0.6,0.1v0.4
		C117.8,89.8,117.6,90.3,117.1,90.7 M136.5,90.8h-1.3v-8.3h1.3v-1.3h-4.2v1.3h1.3v3.4h-5.7v-3.4h1.3v-1.3H125v1.3h1.3v8.3H125v1.3
		h4.2v-1.3h-1.3v-3.6h5.7v3.6h-1.3v1.3h4.2V90.8z M143.1,89.7c-0.1,0.4-0.3,0.7-0.6,1c-0.3,0.3-0.7,0.4-1.3,0.4
		c-1.4,0-2.2-0.8-2.2-2.4h5.2c0.1-0.3,0.1-0.7,0.1-1c0-0.9-0.3-1.7-0.9-2.3c-0.6-0.6-1.4-1-2.4-1c-1.1,0-2,0.4-2.6,1.2
		c-0.6,0.8-1,1.7-1,2.9c0,1.2,0.3,2.2,1,2.9c0.7,0.7,1.6,1,2.7,1c1,0,1.7-0.2,2.3-0.7c0.6-0.5,0.9-1,1-1.7L143.1,89.7z M139,87.7
		c0.1-0.6,0.3-1.1,0.6-1.5c0.3-0.4,0.8-0.6,1.4-0.6c0.7,0,1.1,0.2,1.4,0.7c0.3,0.5,0.4,0.9,0.4,1.4H139z M145.9,87l1.2,0.1l0.3-1.2
		c0.4-0.2,0.8-0.3,1.4-0.3c0.7,0,1.1,0.2,1.3,0.5c0.2,0.4,0.3,0.8,0.3,1.3v0.6c-0.4,0-0.8-0.1-1.3-0.1c-0.9,0-1.7,0.2-2.4,0.5
		c-0.8,0.3-1.1,0.9-1.1,1.9c0,0.8,0.3,1.3,0.8,1.7c0.5,0.3,1,0.5,1.6,0.5c0.6,0,1.1-0.2,1.6-0.5c0.4-0.3,0.7-0.7,1-1.1v0
		c0.1,1,0.5,1.5,1.5,1.5c0.4,0,0.8-0.1,1.1-0.3l0-0.9c-0.1,0.1-0.3,0.1-0.5,0.1c-0.4,0-0.6-0.2-0.6-0.7V87c0-0.9-0.3-1.5-0.8-1.9
		c-0.5-0.4-1.2-0.6-2-0.6c-0.5,0-1,0.1-1.5,0.2c-0.4,0.1-0.9,0.3-1.4,0.6L145.9,87z M149.7,90.7c-0.4,0.3-0.9,0.5-1.4,0.5
		c-0.3,0-0.6-0.1-0.9-0.3c-0.3-0.2-0.4-0.5-0.4-0.9c0-0.5,0.2-0.9,0.6-1.1c0.4-0.2,0.9-0.3,1.4-0.3c0.2,0,0.5,0,0.7,0
		c0.2,0,0.4,0,0.6,0.1v0.4C150.3,89.8,150.1,90.3,149.7,90.7 M157.7,91h-1.2V80.5h-2.8v1.2h1.3V91h-1.2v1.2h3.9V91z M163,89.7
		c-0.1,0.6-0.3,1-0.5,1.1c-0.2,0.2-0.5,0.2-0.7,0.2c-0.8,0-1.2-0.5-1.2-1.4v-4h2.9v-1.1h-2.9v-2.4h-1.5v2.4h-1.2v1.1h1.2v4.2
		c0,0.8,0.2,1.3,0.7,1.8c0.4,0.4,1,0.6,1.8,0.6c1.5,0,2.3-0.8,2.5-2.3L163,89.7z M173.8,91h-1.2v-3.8c0-1-0.3-1.7-0.8-2.1
		c-0.5-0.5-1.1-0.7-1.9-0.7c-1.2,0-2,0.5-2.6,1.5v-5.4h-2.7v1.2h1.2V91h-1.2v1.2h3.9V91h-1.2v-3.4c0-0.5,0.2-1,0.6-1.4
		c0.4-0.4,0.9-0.6,1.5-0.6c0.5,0,0.9,0.2,1.2,0.5c0.3,0.3,0.5,0.9,0.5,1.6V91h-1.2v1.2h4V91z M177.4,81h-1.5v1.7h1.5V81z M178.6,91
		h-1.2v-6.4h-2.8v1.2h1.3V91h-1.2v1.2h4V91z M185,89.7c-0.1,0.4-0.3,0.7-0.6,1c-0.3,0.3-0.7,0.4-1.3,0.4c-1.4,0-2.2-0.8-2.2-2.4h5.2
		c0.1-0.3,0.1-0.7,0.1-1c0-0.9-0.3-1.7-0.9-2.3c-0.6-0.6-1.4-1-2.4-1c-1.1,0-2,0.4-2.6,1.2c-0.6,0.8-0.9,1.7-0.9,2.9
		c0,1.2,0.3,2.2,1,2.9c0.7,0.7,1.6,1,2.7,1c1,0,1.7-0.2,2.3-0.7c0.6-0.5,0.9-1,1-1.7L185,89.7z M180.9,87.7c0.1-0.6,0.3-1.1,0.6-1.5
		c0.3-0.4,0.8-0.6,1.4-0.6c0.7,0,1.1,0.2,1.4,0.7c0.3,0.5,0.4,0.9,0.4,1.4H180.9z M190.5,84.9c-0.3,0.3-0.5,0.6-0.7,1.1v-1.4h-2.7
		v1.2h1.3V91h-1.2v1.2h4.3V91h-1.6v-3.6c0-0.5,0.1-0.9,0.4-1.3s0.6-0.5,1-0.5c0.2,0,0.4,0,0.6,0.1l0.3,1.3l1.2-0.1l-0.3-2.1
		c-0.4-0.3-0.8-0.4-1.4-0.4C191.2,84.5,190.8,84.6,190.5,84.9 M206.6,88.5l-1.3-0.1l-0.3,2.4h-3.8v-8.3h1.7v-1.3h-4.6v1.3h1.3v8.3
		h-1.3v1.3h8.1L206.6,88.5z M210.1,81h-1.5v1.7h1.5V81z M211.4,91h-1.2v-6.4h-2.8v1.2h1.3V91h-1.2v1.2h4V91z M214.3,81.1
		c-0.5,0.5-0.8,1.2-0.8,2.1v1.3h-1.1v1.1h1.1V91h-1.2v1.2h4.3V91H215v-5.3h2v-1.1h-2v-1.5c0-1,0.4-1.6,1.2-1.6c0.3,0,0.6,0,0.8,0.1
		l0.3,1.3l1.2-0.2l-0.3-1.8c-0.3-0.2-0.6-0.4-0.9-0.5c-0.3-0.1-0.7-0.1-1-0.1C215.5,80.3,214.8,80.6,214.3,81.1 M223.3,89.7
		c-0.1,0.4-0.3,0.7-0.6,1c-0.3,0.3-0.7,0.4-1.3,0.4c-1.4,0-2.2-0.8-2.2-2.4h5.2c0.1-0.3,0.1-0.7,0.1-1c0-0.9-0.3-1.7-0.9-2.3
		c-0.6-0.6-1.4-1-2.4-1c-1.1,0-2,0.4-2.6,1.2c-0.6,0.8-1,1.7-1,2.9c0,1.2,0.3,2.2,1,2.9c0.7,0.7,1.6,1,2.7,1c1,0,1.7-0.2,2.3-0.7
		c0.6-0.5,0.9-1,1-1.7L223.3,89.7z M219.2,87.7c0.1-0.6,0.3-1.1,0.6-1.5c0.3-0.4,0.8-0.6,1.4-0.6c0.7,0,1.1,0.2,1.4,0.7
		c0.3,0.5,0.4,0.9,0.4,1.4H219.2z"/>
	<path class="st0" d="M227.1,85.4c-0.6,0-1.2-0.2-1.7-0.7c-0.5-0.5-0.7-1-0.7-1.7c0-0.7,0.2-1.2,0.7-1.7c0.5-0.5,1-0.7,1.7-0.7
		c0.7,0,1.2,0.3,1.7,0.7c0.4,0.5,0.7,1,0.7,1.7c0,0.7-0.2,1.2-0.7,1.7C228.3,85.2,227.8,85.4,227.1,85.4 M227.1,84.9
		c0.6,0,1-0.2,1.4-0.5c0.4-0.4,0.5-0.8,0.5-1.3c0-0.5-0.2-1-0.5-1.4c-0.3-0.4-0.8-0.6-1.4-0.6c-0.6,0-1,0.2-1.4,0.5
		c-0.4,0.4-0.5,0.8-0.5,1.3c0,0.5,0.2,1,0.5,1.4C226.1,84.7,226.6,84.9,227.1,84.9 M226,83.9l0.3,0l0-1.9l-0.3,0l0-0.3l1.2,0
		c0.7,0,1,0.3,1,0.8c0,0.4-0.2,0.6-0.6,0.7l0.4,0.8l0.3,0l0,0.4l-0.6,0l-0.5-1.1l-0.5,0l0,0.7l0.3,0l0,0.3l-1.1,0L226,83.9z
		 M227.2,82.9c0.4,0,0.6-0.1,0.6-0.5c0-0.3-0.2-0.4-0.6-0.4l-0.4,0l0,0.9L227.2,82.9z"/>
	<polygon class="st1" points="80.6,37.2 95.9,37.2 95.9,43 73.4,43 73.4,8 80.6,8 	"/>
	<rect x="100.5" y="8" class="st1" width="7.2" height="35"/>
	<polygon class="st1" points="135.4,28.7 121.6,28.7 121.6,43 114.4,43 114.4,8 137.2,8 137.2,13.8 121.6,13.8 121.6,22.9 
		135.4,22.9 	"/>
	<polygon class="st1" points="162.4,27.8 148.6,27.8 148.6,37.2 164.8,37.2 164.8,43 141.3,43 141.3,8 164.7,8 164.7,13.8 
		148.6,13.8 148.6,22.2 162.4,22.2 	"/>
	<path class="st1" d="M86.1,55.1h-2L83.7,53h-5.4v4.1h4.3v2.7h-4.3v4.2h5.6l0.4-2.1h2v4.6H73.4v-2.2c0.8-0.1,1.3-0.1,1.7-0.2V52.9
		c-0.5-0.1-1-0.1-1.8-0.2v-2.2h12.7V55.1z"/>
	<path class="st1" d="M104.2,64.1c0.5,0,0.9,0.1,1.4,0.1v2.2h-6.5v-2.2l1.2-0.1l-2.8-4.2h0l-2.4,4.2c0.5,0,1,0.1,1.5,0.1v2.2h-6.4
		v-2.2c0.5-0.1,1.1-0.1,1.6-0.2l3.8-5.5l-4.3-5.7c-0.5,0-0.9-0.1-1.4-0.1v-2.2h6.8v2.2c-0.5,0-0.9,0.1-1.3,0.1l2.9,4.1h0l2.4-4.1
		c-0.5,0-1-0.1-1.5-0.2v-2.2h6.4v2.2c-0.5,0.1-1.1,0.1-1.6,0.2l-3.9,5.6L104.2,64.1z"/>
	<path class="st1" d="M121.3,55.3l-0.2-2.3h-3.3v11c0.6,0,1.3,0.1,1.9,0.2v2.2h-7v-2.2c0.6-0.1,1.3-0.1,1.9-0.2V53h-3.4l-0.2,2.3
		h-2.2v-4.9h14.6v4.9H121.3z"/>
	<path class="st1" d="M139.6,55.1h-2l-0.4-2.1h-5.4v4.1h4.3v2.7h-4.3v4.2h5.6l0.4-2.1h2v4.6h-12.8v-2.2c0.8-0.1,1.3-0.1,1.7-0.2
		V52.9c-0.5-0.1-1-0.1-1.8-0.2v-2.2h12.7V55.1z"/>
	<path class="st1" d="M160.4,52.7c-0.6,0.1-1.2,0.2-1.8,0.2v13.6h-3.3l-7-10.8v8.4c0.5,0,0.9,0.1,1.4,0.2v2.2h-6v-2.2
		c0.6-0.1,1.2-0.2,1.8-0.2V52.9c-0.4,0-1-0.1-1.8-0.2v-2.2h4.8l7.3,11.1v-8.7c-0.5,0-1-0.1-1.5-0.2v-2.2h6.1V52.7z"/>
	<path class="st1" d="M167.7,63.7c1,0.4,1.9,0.5,3.2,0.5h0.3c2.1,0,2.7-0.4,2.7-1.9v-0.5c0-1.2-0.4-1.6-2-2l-4.1-1
		c-2.5-0.7-3.2-1.6-3.2-4.1v-0.3c0-3.1,1.7-4.4,5.7-4.4h0.7c2.1,0,3.8,0.3,5.7,0.9v4.2h-2.5l-0.4-2.2c-0.8-0.4-1.7-0.5-2.8-0.5h-0.7
		c-1.8,0-2.4,0.5-2.4,1.8v0.2c0,0.9,0.3,1.4,1.4,1.6l4.8,1.1c2.3,0.6,3.1,1.6,3.1,3.9v1c0,3.1-1.6,4.4-5.7,4.4h-0.9
		c-2.3,0-3.5-0.3-5.8-1.2v-4h2.6L167.7,63.7z"/>
	<path class="st1" d="M187.8,52.7c-0.6,0.1-1.2,0.2-1.8,0.2V64c0.6,0,1.2,0.1,1.8,0.2v2.2h-6.7v-2.2c0.6-0.1,1.1-0.1,1.7-0.2V52.9
		c-0.6,0-1.2-0.1-1.8-0.2v-2.2h6.7V52.7z"/>
	<path class="st1" d="M197.7,66.7c-4,0-6-2.3-6-6.1v-4.2c0-3.9,2-6.2,6-6.2h2.1c3.9,0,5.9,2.3,5.9,6.2v4.2c0,3.8-2,6.1-5.9,6.1
		H197.7z M199.5,63.9c2,0,3-0.9,3.1-3.1v-4.7c0-2.2-1-3.2-3.1-3.2h-1.6c-2.1,0-3,1.1-3,3.2v4.7c0,2.2,1,3.1,3,3.1H199.5z"/>
	<path class="st1" d="M226.3,52.7c-0.6,0.1-1.2,0.2-1.8,0.2v13.6h-3.3l-7-10.8v8.4c0.5,0,0.9,0.1,1.4,0.2v2.2h-6v-2.2
		c0.6-0.1,1.2-0.2,1.8-0.2V52.9c-0.4,0-1-0.1-1.8-0.2v-2.2h4.8l7.3,11.1v-8.7c-0.5,0-1-0.1-1.5-0.2v-2.2h6.1V52.7z"/>
	<path class="st1" d="M234.4,53.5c0,1.9-1.1,3.1-3.1,3.1c-1.9,0-3-1.1-3-3.1c0-1.9,1.1-3.1,3-3.1C233.2,50.4,234.4,51.6,234.4,53.5
		 M228.8,53.5c0,1.7,0.9,2.6,2.5,2.6c1.6,0,2.6-0.9,2.6-2.6c0-1.7-0.9-2.6-2.6-2.6C229.7,50.9,228.8,51.8,228.8,53.5 M231.6,51.9
		c0.7,0,1.1,0.4,1.1,0.9V53c0,0.5-0.2,0.7-0.5,0.8c0.1,0.2,0.2,0.4,0.3,0.6l0.4,0.1V55h-1.1v-0.2c-0.1-0.3-0.2-0.6-0.4-0.8H231v0.5
		l0.3,0V55h-1.3v-0.5l0.3,0v-2c-0.1,0-0.2,0-0.4,0v-0.5H231.6z M231,53.4h0.6c0.3,0,0.4-0.1,0.4-0.4v-0.1c0-0.3-0.1-0.4-0.4-0.4H231
		V53.4z"/>
	<path class="st1" d="M33.8,62.5l-7.3,4.2l5.3,3c1.3,0.7,2.8,0.7,4.1,0l5.3-3L33.8,62.5z"/>
	<path class="st1" d="M31.7,4.7l-5.3,3l7.3,4.2l7.3-4.2l-5.3-3C34.6,3.9,33,3.9,31.7,4.7"/>
	<polygon class="st1" points="13.3,38.8 5.8,43.1 13.3,47.5 20.7,43.1 	"/>
	<polygon class="st1" points="54.3,27 46.8,31.3 54.3,35.6 61.8,31.3 	"/>
	<path class="st1" d="M55.7,49.9v8.5l5.3-3c1.3-0.7,2.1-2.1,2.1-3.6v-6.1L55.7,49.9z"/>
	<path class="st1" d="M4.5,22.7v6.1l7.3-4.2v-8.5l-5.3,3C5.3,19.9,4.5,21.3,4.5,22.7"/>
	<polygon class="st1" points="24.9,55.8 24.9,64.4 32.4,60.1 32.4,51.5 	"/>
	<polygon class="st1" points="35.2,14.3 35.2,23 42.6,18.7 42.6,10 	"/>
	<path class="st1" d="M55.7,16.1v8.5l7.3,4.2v-6.1c0-1.5-0.8-2.8-2.1-3.6L55.7,16.1z"/>
	<path class="st1" d="M4.5,45.6v6.1c0,1.5,0.8,2.8,2.1,3.6l5.3,3v-8.5L4.5,45.6z"/>
	<polygon class="st1" points="45.4,45.5 45.4,54.2 52.9,58.5 52.9,49.9 	"/>
	<polygon class="st1" points="14.6,15.9 14.6,24.6 22.1,28.9 22.1,20.3 	"/>
	<polygon class="st0" points="13.3,27 5.8,31.3 13.3,35.6 20.7,31.3 	"/>
	<polygon class="st0" points="54.3,38.8 46.8,43.1 54.3,47.5 61.8,43.1 	"/>
	<polygon class="st0" points="14.6,49.9 14.6,58.5 22.1,54.2 22.1,45.5 	"/>
	<polygon class="st0" points="45.4,20.3 45.4,28.9 52.9,24.6 52.9,15.9 	"/>
	<polygon class="st0" points="35.2,51.5 35.2,60.1 42.6,64.4 42.6,55.8 	"/>
	<polygon class="st0" points="24.9,10 24.9,18.7 32.4,23 32.4,14.3 	"/>
	<polygon class="st2" points="63,40.7 63,33.8 57.1,37.2 	"/>
	<polygon class="st2" points="22.1,64.3 22.1,57.4 16.2,60.8 	"/>
	<polygon class="st2" points="51.4,60.8 45.4,57.4 45.4,64.3 	"/>
	<polygon class="st2" points="4.5,40.7 10.5,37.2 4.5,33.8 	"/>
	<polygon class="st2" points="16.2,13.6 22.1,17.1 22.1,10.2 	"/>
	<polygon class="st2" points="45.4,10.2 45.4,17.1 51.4,13.6 	"/>
	<polygon class="st2" points="42.6,52.6 42.6,45.5 36.5,49.1 	"/>
	<polygon class="st2" points="45.4,40.7 51.5,37.2 45.4,33.7 	"/>
	<polygon class="st2" points="42.6,21.9 36.5,25.4 42.6,28.9 	"/>
	<polygon class="st2" points="16,37.2 22.1,40.7 22.1,33.7 	"/>
	<polygon class="st2" points="24.9,52.6 31,49.1 24.9,45.5 	"/>
	<polygon class="st2" points="24.9,21.9 24.9,28.9 31,25.4 	"/>
	<polygon class="st0" points="191.7,25.3 184.2,25.3 184.2,31.4 192.9,31.4 192.9,33.3 181.9,33.3 181.9,16 192.8,16 192.8,17.9 
		184.2,17.9 184.2,23.4 191.7,23.4 	"/>
	<path class="st0" d="M203.1,32c-0.9,1-2.1,1.5-3.8,1.5c-1.4,0-2.4-0.4-3.1-1.2c-0.7-0.8-1.1-2-1.1-3.5v-8.4h2.2v8.3
		c0,2,0.8,2.9,2.4,2.9c1.7,0,2.8-0.6,3.4-1.9v-9.4h2.2v12.9h-2.1L203.1,32z"/>
	<path class="st0" d="M214.8,22.4c-0.3-0.1-0.7-0.1-1.1-0.1c-1.4,0-2.4,0.6-2.9,1.8v9.1h-2.2V20.4h2.1l0,1.5
		c0.7-1.1,1.7-1.7,3.1-1.7c0.4,0,0.8,0.1,1,0.2V22.4z"/>
	<path class="st0" d="M216,26.8c0-1.3,0.2-2.4,0.7-3.4c0.5-1,1.2-1.8,2.1-2.3c0.9-0.5,1.9-0.8,3-0.8c1.8,0,3.2,0.6,4.3,1.8
		c1.1,1.2,1.6,2.8,1.6,4.8V27c0,1.3-0.2,2.4-0.7,3.4c-0.5,1-1.2,1.8-2.1,2.3c-0.9,0.6-1.9,0.8-3.1,0.8c-1.7,0-3.2-0.6-4.2-1.8
		c-1.1-1.2-1.6-2.8-1.6-4.8V26.8z M218.2,27c0,1.4,0.3,2.6,1,3.4c0.7,0.9,1.5,1.3,2.7,1.3c1.1,0,2-0.4,2.7-1.3c0.7-0.9,1-2.1,1-3.7
		c0-1.4-0.3-2.6-1-3.4c-0.7-0.9-1.6-1.3-2.7-1.3c-1.1,0-2,0.4-2.6,1.3C218.6,24.2,218.2,25.4,218.2,27"/>
	<path class="st0" d="M241.4,27c0,2-0.4,3.5-1.3,4.7c-0.9,1.2-2.1,1.8-3.6,1.8c-1.6,0-2.8-0.5-3.7-1.5v6.2h-2.2V20.4h2l0.1,1.4
		c0.9-1.1,2.1-1.7,3.7-1.7c1.5,0,2.8,0.6,3.7,1.7c0.9,1.2,1.4,2.8,1.4,4.9V27z M239.2,26.8c0-1.5-0.3-2.6-0.9-3.4
		c-0.6-0.8-1.5-1.3-2.5-1.3c-1.3,0-2.3,0.6-3,1.8V30c0.7,1.2,1.7,1.8,3,1.8c1.1,0,1.9-0.4,2.5-1.3C238.8,29.7,239.2,28.4,239.2,26.8
		"/>
	<path class="st0" d="M249.5,33.6c-1.7,0-3.2-0.6-4.3-1.7c-1.1-1.1-1.6-2.7-1.6-4.6v-0.4c0-1.3,0.2-2.4,0.7-3.4s1.2-1.8,2-2.4
		c0.9-0.6,1.8-0.8,2.8-0.8c1.7,0,3,0.6,3.9,1.7c0.9,1.1,1.4,2.7,1.4,4.7v0.9h-8.7c0,1.3,0.4,2.3,1.1,3.1c0.7,0.8,1.6,1.2,2.7,1.2
		c0.8,0,1.4-0.2,2-0.5c0.5-0.3,1-0.7,1.4-1.3l1.3,1C253.3,32.7,251.6,33.6,249.5,33.6 M249.2,22c-0.9,0-1.6,0.3-2.2,1
		c-0.6,0.6-1,1.6-1.1,2.7h6.4v-0.2c-0.1-1.1-0.4-2-0.9-2.6C250.9,22.3,250.1,22,249.2,22"/>
	<line class="st3" x1="173.2" y1="15.1" x2="173.2" y2="36.1"/>
</g>
</svg>
